# xmcd CD database file
#
# Track frame offsets:
#	150
#	19247
#	28920
#	41922
#	51965
#	59973
#	73320
#	91128
#	102198
#	117198
#	128533
#	140438
#	163966
#	178001
#	188316
#	202193
#	215513
#	229629
#	241473
#	253172
#	263358
#	276890
#	284765
#
# Disc length: 3972 seconds
#
# Revision: 4
# Processed by: cddbd v1.5.2PL0 Copyright (c) Steve Scherf et al.
# Submitted via: CDex 1.70beta2
#
DISCID=670f8217
DTITLE=BUDDY GUY - First Time I Met The Blues
DYEAR=1991
DGENRE=Blues
TTITLE0=First Time I Met The Blues(Live)
TTITLE1=Slop Around
TTITLE2=Let Me Love You Baby
TTITLE3=Got To Use Your Head
TTITLE4=I Dig Your Wig
TTITLE5=My Time After A While
TTITLE6=Stick Around
TTITLE7=No Lie
TTITLE8=Night Flight
TTITLE9=My Mother
TTITLE10=Ten Years Ago
TTITLE11=Don't Know Which Way To Go
TTITLE12=Gully Hully
TTITLE13=First Time I Met The Blues(Studio)
TTITLE14=I got A Strange Feelling
TTITLE15=This Is The End
TTITLE16=Broken Hearted Blues
TTITLE17=You Sure Can't Do
TTITLE18=Try To Quit You Baby
TTITLE19=I Got My Eyes On You
TTITLE20=Sit And Cry(The Blues)
TTITLE21=Untitled Instrumental
TTITLE22=Drinking Muddy Water(Live)
EXTD=YEAR: 1991
EXTT0=
EXTT1=
EXTT2=
EXTT3=
EXTT4=
EXTT5=
EXTT6=
EXTT7=
EXTT8=
EXTT9=
EXTT10=
EXTT11=
EXTT12=
EXTT13=
EXTT14=
EXTT15=
EXTT16=
EXTT17=
EXTT18=
EXTT19=
EXTT20=
EXTT21=
EXTT22=
PLAYORDER=
